*
*
G04 PADS VX.2.6 Build Number: 17207075 generated Gerber (RS-274-X) file*
G04 PC Version=2.1*
*
%IN "Smart_flowerpot_REV0.1."*%
*
%MOIN*%
*
%FSLAX35Y35*%
*
*
*
*
G04 PC Standard Apertures*
*
*
G04 Thermal Relief Aperture macro.*
%AMTER*
1,1,$1,0,0*
1,0,$1-$2,0,0*
21,0,$3,$4,0,0,45*
21,0,$3,$4,0,0,135*
%
*
*
G04 Annular Aperture macro.*
%AMANN*
1,1,$1,0,0*
1,0,$2,0,0*
%
*
*
G04 Odd Aperture macro.*
%AMODD*
1,1,$1,0,0*
1,0,$1-0.005,0,0*
%
*
*
G04 PC Custom Aperture Macros*
*
*
*
*
*
*
G04 PC Aperture Table*
*
%ADD014C,0.01*%
%ADD049C,0.001*%
%ADD378R,0.08087X0.08087*%
%ADD379C,0.08087*%
%ADD382R,0.08874X0.08874*%
%ADD383C,0.08874*%
%ADD384C,0.04937*%
%ADD385C,0.08*%
%ADD386R,0.10843X0.08087*%
%ADD387O,0.10843X0.08087*%
%ADD388C,0.12811*%
%ADD391C,0.03362*%
%ADD393C,0.36433*%
*
*
*
*
G04 PC Circuitry*
G04 Layer Name Smart_flowerpot_REV0.1. - circuitry*
%LPD*%
*
*
G04 PC Custom Flashes*
G04 Layer Name Smart_flowerpot_REV0.1. - flashes*
%LPD*%
*
*
G04 PC Circuitry*
G04 Layer Name Smart_flowerpot_REV0.1. - circuitry*
%LPD*%
*
G54D14*
G01X100000Y100000D02*
X769291D01*
Y769291*
X100000*
Y100000*
G54D49*
G54D378*
X651181Y159685D03*
X674803D03*
X698425D03*
X722047D03*
X745669D03*
X517323Y277165D03*
X572441Y282913D03*
X615748Y277165D03*
X651181Y517323D03*
X529134Y450394D03*
X446181Y300591D03*
X166929Y277165D03*
X740157Y305354D03*
X222047Y282913D03*
X332283Y351969D03*
X253543Y139370D03*
X159055Y450394D03*
Y517323D03*
X249606Y450394D03*
Y517323D03*
X340157Y450394D03*
Y517323D03*
X430709Y450394D03*
Y517323D03*
X304724Y139370D03*
X158740Y621181D03*
X209921D03*
X276850D03*
X328031D03*
X659055Y442205D03*
X670866D03*
X682677D03*
X694488D03*
X706299D03*
G54D379*
X651181Y169685D03*
Y179685D03*
X674803Y169685D03*
Y179685D03*
X698425Y169685D03*
Y179685D03*
X722047Y169685D03*
Y179685D03*
X745669Y169685D03*
Y179685D03*
X527323Y277165D03*
X537323D03*
X547323D03*
Y307165D03*
X537323D03*
X527323D03*
X517323D03*
X572441Y292913D03*
Y302913D03*
X625748Y277165D03*
X635748D03*
X645748D03*
X655748D03*
X665748D03*
X675748D03*
X685748D03*
Y307165D03*
X675748D03*
X665748D03*
X655748D03*
X645748D03*
X635748D03*
X625748D03*
X615748D03*
X661181Y517323D03*
X671181D03*
X681181D03*
X691181D03*
X701181D03*
X711181D03*
Y547323D03*
X701181D03*
X691181D03*
X681181D03*
X671181D03*
X661181D03*
X651181D03*
X539134Y450394D03*
X549134D03*
X559134D03*
X569134D03*
X579134D03*
X589134D03*
X599134D03*
Y480394D03*
X589134D03*
X579134D03*
X569134D03*
X559134D03*
X549134D03*
X539134D03*
X529134D03*
X455394Y300591D03*
X464606D03*
X176929Y277165D03*
X186929D03*
X196929D03*
Y307165D03*
X186929D03*
X176929D03*
X166929D03*
X740157Y315354D03*
Y325354D03*
X222047Y292913D03*
Y302913D03*
X342283Y351969D03*
X352283D03*
X362283D03*
X372283D03*
X382283D03*
X392283D03*
Y381969D03*
X382283D03*
X372283D03*
X362283D03*
X352283D03*
X342283D03*
X332283D03*
X263543Y139370D03*
X273543D03*
X283543D03*
Y169370D03*
X273543D03*
X263543D03*
X253543D03*
X169055Y450394D03*
X179055D03*
X189055D03*
X199055D03*
X209055D03*
X219055D03*
X229055D03*
Y480394D03*
X219055D03*
X209055D03*
X199055D03*
X189055D03*
X179055D03*
X169055D03*
X159055D03*
X169055Y517323D03*
X179055D03*
X189055D03*
X199055D03*
X209055D03*
X219055D03*
X229055D03*
Y547323D03*
X219055D03*
X209055D03*
X199055D03*
X189055D03*
X179055D03*
X169055D03*
X159055D03*
X259606Y450394D03*
X269606D03*
X279606D03*
X289606D03*
X299606D03*
X309606D03*
X319606D03*
Y480394D03*
X309606D03*
X299606D03*
X289606D03*
X279606D03*
X269606D03*
X259606D03*
X249606D03*
X259606Y517323D03*
X269606D03*
X279606D03*
X289606D03*
X299606D03*
X309606D03*
X319606D03*
Y547323D03*
X309606D03*
X299606D03*
X289606D03*
X279606D03*
X269606D03*
X259606D03*
X249606D03*
X350157Y450394D03*
X360157D03*
X370157D03*
X380157D03*
X390157D03*
X400157D03*
X410157D03*
Y480394D03*
X400157D03*
X390157D03*
X380157D03*
X370157D03*
X360157D03*
X350157D03*
X340157D03*
X350157Y517323D03*
X360157D03*
X370157D03*
X380157D03*
X390157D03*
X400157D03*
X410157D03*
Y547323D03*
X400157D03*
X390157D03*
X380157D03*
X370157D03*
X360157D03*
X350157D03*
X340157D03*
X440709Y450394D03*
X450709D03*
X460709D03*
X470709D03*
X480709D03*
X490709D03*
X500709D03*
Y480394D03*
X490709D03*
X480709D03*
X470709D03*
X460709D03*
X450709D03*
X440709D03*
X430709D03*
X440709Y517323D03*
X450709D03*
X460709D03*
X470709D03*
X480709D03*
X490709D03*
X500709D03*
Y547323D03*
X490709D03*
X480709D03*
X470709D03*
X460709D03*
X450709D03*
X440709D03*
X430709D03*
X314724Y139370D03*
X324724D03*
X334724D03*
Y169370D03*
X324724D03*
X314724D03*
X304724D03*
X168740Y621181D03*
X178740D03*
X188740D03*
X198740D03*
Y681181D03*
X188740D03*
X178740D03*
X168740D03*
X158740D03*
X219921Y621181D03*
X229921D03*
X239921D03*
X249921D03*
Y681181D03*
X239921D03*
X229921D03*
X219921D03*
X209921D03*
X286850Y621181D03*
X296850D03*
X306850D03*
X316850D03*
Y681181D03*
X306850D03*
X296850D03*
X286850D03*
X276850D03*
X338031Y621181D03*
X348031D03*
X358031D03*
X368031D03*
Y681181D03*
X358031D03*
X348031D03*
X338031D03*
X328031D03*
X659055Y482205D03*
X670866D03*
X682677D03*
X694488D03*
X706299D03*
G54D382*
X695236Y651181D03*
G54D383*
X725236D03*
G54D384*
X705236Y592126D03*
X710236D03*
X715236D03*
X705236Y611811D03*
X710236D03*
X715236D03*
G54D385*
X445394Y391339D03*
X455394D03*
X445394Y375591D03*
X455394D03*
X445394Y359843D03*
X455394D03*
X445394Y344094D03*
X455394D03*
X445394Y328346D03*
X455394D03*
G54D386*
X744094Y365591D03*
Y253701D03*
G54D387*
Y375591D03*
Y385591D03*
Y243701D03*
Y233701D03*
G54D388*
X168740Y144055D03*
X188740D03*
Y174055D03*
X168740D03*
G54D391*
X119685Y759843D03*
Y739370D03*
X109449Y749606D03*
X129921D03*
X112598Y756693D03*
X126772D03*
X112598Y742520D03*
X126772D03*
X119685Y129921D03*
Y109449D03*
X109449Y119685D03*
X129921D03*
X112598Y126772D03*
X126772D03*
X112598Y112598D03*
X126772D03*
X749606Y759843D03*
Y739370D03*
X739370Y749606D03*
X759843D03*
X742520Y756693D03*
X756693D03*
X742520Y742520D03*
X756693D03*
X749606Y129921D03*
Y109449D03*
X739370Y119685D03*
X759843D03*
X742520Y126772D03*
X756693D03*
X742520Y112598D03*
X756693D03*
G54D393*
X119685Y749606D03*
Y119685D03*
X749606Y749606D03*
Y119685D03*
X0Y0D02*
M02*
