M48
;FILE_FORMAT=2:4
INCH,LZ
FMAT,2
ICI,OFF
;TYPE=PLATED
T1C.00591
T2C.01181
T3C.01575
T4C.01969
T5C.0315
T6C.03543
T7C.03937
T8C.04
T9C.05118
T10C.1378
%
M72
G90
G93X0Y0
T1C.00591F0S0
X010945Y014724
X014842Y014724
X016791Y012776
X020688Y012776
X022637Y014724
X024586Y012776
X026535Y014724
X028483Y012776
X030432Y014724
X032381Y012776
X03433Y014724
X036278Y012776
X040176Y012776
X042124Y014724
X044073Y012776
X046022Y014724
X047971Y012776
X049331Y014724
X049587Y014488
X049846Y014252
X050106Y014016
X05037Y01378
X051868Y012776
X055765Y012776
X059663Y012776
X06356Y012776
X065509Y014724
X067458Y012776
X069406Y014724
X071355Y012776
X075253Y016673
X075253Y020571
X073304Y018622
X071355Y016673
X071355Y020571
X069406Y018622
X067458Y020571
X065509Y018622
X06356Y016673
X06356Y020571
X062571Y019843
X061612Y018622
X059663Y020571
X059663Y016673
X057714Y018622
X055765Y016673
X055765Y020571
X053817Y018622
X053307Y019843
X052126Y019213
X051868Y016673
X051268Y02063
X05063Y019213
X047971Y016673
X046022Y018622
X044073Y016673
X042124Y018622
X040176Y016673
X036278Y016673
X03433Y018622
X033571Y02063
X033472Y019551
X032953Y019807
X032469Y019547
X031992Y020063
X031472Y019551
X030976Y020583
X030472Y019547
X029697Y020323
X028354Y019547
X027878Y019024
X027354Y019551
X026882Y019287
X026354Y019547
X025866Y020843
X025354Y019547
X024586Y016673
X024567Y019547
X022637Y018622
X020688Y016673
X014842Y018622
X013488Y020843
X013232Y020583
X012972Y020323
X012894Y016673
X012701Y020063
X012445Y019807
X012181Y019547
X01189Y019287
X01161Y019024
X010945Y018622
X010945Y022519
X013748Y02111
X014842Y022519
X016791Y024468
X01874Y022519
X018874Y02111
X019512Y025776
X020688Y024468
X022637Y022519
X02472Y024449
X025823Y025776
X026535Y022519
X026823Y024161
X030432Y022519
X034055Y021413
X035055Y021807
X040118Y024787
X042124Y022519
X046022Y022519
X048563Y023579
X048823Y024157
X049075Y02387
X052307Y023579
X052807Y02387
X053307Y024449
X053807Y021807
X054307Y021413
X054307Y024787
X054807Y024161
X057714Y022519
X059663Y024468
X061612Y022519
X06356Y024468
X065509Y022519
X067458Y024468
X069406Y022519
X071355Y024468
X073304Y022519
X075253Y024468
X075253Y028365
X073304Y026417
X071355Y028365
X069445Y028831
X069406Y026417
X067458Y028365
X061612Y026417
X060252Y028827
X059752Y028547
X057714Y026417
X051868Y028365
X047971Y028365
X046022Y026417
X044073Y028365
X042124Y026417
X042124Y030314
X038227Y030314
X036555Y027319
X036051Y026224
X035555Y02878
X034055Y029059
X032381Y028365
X032122Y029059
X031862Y02878
X030432Y030314
X028823Y027327
X026323Y027323
X020688Y028365
X016791Y028365
X014842Y030314
X01135Y026224
X010945Y026417
X010945Y030314
X010945Y034212
X013748Y033921
X014842Y034212
X016791Y032263
X018701Y033921
X019728Y034374
X020248Y033016
X020688Y032263
X021201Y034807
X023811Y034146
X026323Y033701
X028483Y032263
X028823Y034811
X030157Y033925
X030413Y034378
X031862Y034606
X032122Y033701
X033228Y033701
X033555Y033705
X034051Y034378
X03422Y034606
X035055Y034602
X035555Y033925
X036228Y034602
X036555Y034146
X037228Y033705
X038227Y034212
X040709Y034409
X040709Y032835
X042252Y034409
X042252Y03285
X043091Y034409
X043346Y03285
X044618Y03152
X047971Y032263
X048315Y03152
X05037Y035906
X05063Y03563
X051559Y035906
X053817Y034212
X055765Y032263
X057714Y034212
X061612Y034212
X062272Y03563
X06356Y032263
X065509Y034212
X067458Y032263
X073304Y034212
X075253Y032263
X075253Y03616
X073304Y038109
X070626Y038055
X068339Y038311
X067458Y03616
X066339Y037791
X065339Y038055
X064484Y037791
X06356Y03616
X061252Y038004
X060248Y038311
X058752Y037744
X055765Y03616
X055732Y03748
X054551Y038004
X054059Y037744
X052559Y03748
X047971Y03616
X046022Y038109
X042827Y035988
X042563Y037559
X04226Y037559
X04226Y035988
X040709Y035984
X040709Y037559
X038228Y036268
X035228Y036594
X034228Y036831
X033228Y036268
X032381Y03616
X028323Y036374
X027823Y036831
X027323Y036594
X026823Y036374
X026323Y036717
X025823Y036358
X022637Y038109
X019201Y036717
X018201Y036358
X016791Y03616
X014842Y038109
X010945Y038109
X016791Y040058
X020688Y040058
X024586Y040058
X02472Y038602
X026823Y038602
X032591Y039071
X035228Y039071
X040118Y039071
X040176Y040058
X040709Y039134
X04226Y039138
X044073Y040058
X047971Y040058
X049331Y04052
X049587Y04026
X049846Y04
X050106Y039744
X052055Y04
X052555Y04026
X053055Y04052
X053559Y039744
X053913Y040555
X055055Y040335
X059752Y038587
X060248Y040555
X061252Y040335
X06356Y040058
X067839Y038587
X068839Y040555
X072067Y040555
X075253Y040058
X073304Y042006
X070626Y041307
X069457Y041539
X068268Y041756
X067339Y041539
X067087Y041972
X066839Y042193
X066339Y041972
X065906Y042193
X065839Y041756
X051409Y041075
X048823Y04263
X048563Y042409
X048315Y041075
X046071Y04263
X045071Y042409
X043346Y041307
X043091Y041539
X042827Y041756
X042563Y041972
X04226Y042193
X04002Y042886
X038227Y042006
X037016Y04263
X036016Y043146
X034228Y042398
X033154Y043402
X03289Y042398
X030413Y04263
X028823Y042886
X028323Y043146
X027823Y043402
X026535Y042006
X022637Y042006
X01874Y042006
X014842Y042006
X010945Y042006
X010945Y045904
X013232Y045039
X013488Y044008
X018902Y043728
X022637Y045904
X023559Y045657
X023811Y043728
X024961Y044008
X025961Y045657
X027323Y043661
X027961Y043917
X027961Y045787
X030157Y043917
X031291Y045787
X03433Y045904
X038227Y045904
X040016Y04576
X042043Y04576
X042327Y04563
X044071Y04563
X047971Y043955
X049071Y045724
X050894Y045724
X051154Y043661
X051868Y043955
X055732Y043654
X057714Y045904
X059663Y043955
X061177Y043654
X06356Y043955
X065509Y045904
X069406Y045904
X073304Y045904
X075253Y043955
X075253Y047853
X073071Y047402
X071551Y047402
X06356Y047853
X051868Y047853
X051154Y047374
X050626Y046004
X048071Y047374
X048071Y046272
X046083Y046555
X045071Y046004
X045071Y047343
X042543Y046272
X041783Y046024
X041528Y046299
X039016Y046819
X039016Y046024
X037016Y047083
X037016Y046555
X036016Y046299
X036016Y047343
X035016Y046563
X033433Y046563
X033154Y046819
X03289Y047343
X032591Y047343
X031291Y047083
X030961Y046776
X029961Y047343
X029961Y046476
X027961Y04622
X026961Y045949
X024362Y046776
X024094Y046476
X023819Y045949
X021906Y046748
X020906Y046488
X020906Y047339
X018906Y04702
X018906Y04622
X017906Y046228
X016906Y045961
X014016Y046748
X013752Y046488
X013492Y046228
X013228Y045961
X01135Y04702
X010945Y049801
X01161Y050382
X01189Y050118
X012181Y049862
X012445Y049606
X012701Y049346
X012972Y049091
X013492Y050913
X014016Y050657
X016906Y049091
X020894Y050657
X021906Y049346
X021906Y050913
X022906Y049606
X024094Y050917
X024362Y050657
X025961Y049862
X025961Y050917
X026535Y049801
X029965Y050657
X030432Y049801
X030961Y050118
X031961Y050382
X03433Y049801
X035016Y050543
X038227Y049801
X039016Y050283
X040016Y050819
X041528Y050819
X041783Y050543
X042043Y050283
X046022Y049801
X048071Y050787
X049919Y049801
X050894Y050787
X051409Y049287
X053817Y049801
X055071Y049287
X057714Y049801
X062008Y048984
X065509Y049801
X069118Y04937
X07063Y050157
X072067Y050157
X072067Y04937
X073071Y048984
X074173Y050157
X074173Y04937
X074173Y048583
X075253Y05175
X075253Y055648
X074173Y050945
X073304Y053699
X072067Y050945
X071355Y055648
X070118Y050945
X067458Y055648
X067118Y050949
X065509Y053699
X065118Y05261
X064484Y050949
X06356Y05175
X06356Y055648
X062008Y053976
X061752Y053622
X061181Y05261
X060787Y052992
X059764Y055276
X059764Y051339
X05878Y055276
X058283Y053976
X057783Y052992
X056783Y053622
X055765Y055648
X055765Y05175
X053817Y053699
X051868Y055648
X051868Y05175
X050626Y051051
X049919Y053699
X049071Y051051
X046022Y053699
X042327Y05174
X042124Y053699
X038227Y053699
X03433Y053699
X033433Y051732
X032381Y055648
X030961Y051177
X030432Y053699
X028483Y055648
X026535Y053699
X024586Y055648
X023819Y051177
X023559Y051732
X022637Y053699
X01874Y053699
X016906Y051177
X014842Y053699
X013752Y051177
X013228Y051732
X012894Y055648
X012894Y05175
X010945Y053699
X010945Y057596
X01322Y056346
X01348Y056618
X013744Y056902
X014004Y057157
X014272Y057413
X014531Y057669
X014787Y057929
X015043Y058185
X015874Y058441
X016906Y056346
X017906Y056618
X018906Y056902
X019906Y057157
X022898Y058441
X025961Y057413
X026961Y057669
X027961Y057929
X028961Y058185
X030432Y057596
X03433Y057596
X042124Y057596
X053817Y057596
X057714Y057596
X061612Y057596
X062272Y05815
X065509Y057596
X069406Y057596
X071024Y05815
X073304Y057596
X075253Y059545
X067458Y059545
X06356Y059545
X059663Y059545
X055765Y059545
X051868Y059545
X050071Y060299
X049071Y060559
X048071Y060815
X041878Y058728
X041618Y059
X041358Y059256
X041016Y059516
X040016Y059776
X039016Y060039
X037016Y059256
X036016Y059
X035803Y060815
X035016Y058728
X033803Y060559
X032795Y060299
X031961Y059248
X030961Y058984
X030689Y060039
X029961Y058724
X028677Y059776
X027689Y059516
X024586Y059545
X023988Y058724
X021992Y058984
X021906Y058701
X020992Y059248
X020906Y058957
X018874Y058957
X016874Y058701
X012894Y059545
X010945Y061494
X012894Y063442
X016791Y063442
X020688Y063442
X022637Y061494
X024586Y063442
X026535Y061494
X028483Y063442
X032381Y063442
X03433Y061494
X036278Y063442
X040176Y063442
X047971Y063442
X049919Y061494
X051868Y063442
X053817Y061494
X055765Y063442
X057714Y061494
X059663Y063442
X061612Y061494
X06356Y063442
X065509Y061494
X067458Y063442
X069406Y061494
X071355Y063442
X073304Y061494
X075253Y063442
X075253Y06734
X073304Y065391
X071355Y06734
X065509Y065391
X06356Y06734
X061612Y065391
X059663Y06734
X057714Y065391
X055765Y06734
X053817Y065391
X051868Y06734
X049919Y065391
X047971Y06734
X047071Y067346
X046071Y067083
X045071Y066823
X044071Y066559
X041878Y065528
X041618Y065783
X041358Y066043
X038016Y066299
X036803Y067346
X036278Y06734
X035799Y067083
X033803Y066559
X032803Y066823
X032381Y06734
X031685Y066299
X030697Y066043
X028681Y065528
X027677Y065783
X026535Y065391
X024996Y0655
X024586Y06734
X023996Y065764
X021996Y06628
X020992Y066024
X01987Y066535
X018866Y066795
X016874Y067315
X015874Y067051
X015043Y0655
X014787Y065764
X014531Y066024
X014272Y06628
X014004Y066535
X013744Y066795
X01348Y067051
X01322Y067315
X012894Y06734
X010945Y065391
X010945Y069289
X012894Y071237
X014842Y069289
X014842Y073186
X016791Y071237
X01874Y069289
X01874Y073186
X020688Y071237
X022637Y073186
X024586Y071237
X026535Y069289
X026535Y073186
X028483Y071237
X030432Y069289
X030432Y073186
X032381Y071237
X03433Y069289
X03433Y073186
X036278Y071237
X038227Y069289
X038227Y073186
X040176Y071237
X042124Y069289
X042124Y073186
X044073Y071237
X046022Y069289
X046022Y073186
X047971Y071237
X049919Y069289
X049919Y073186
X051868Y071237
X053817Y069289
X053817Y073186
X055765Y071237
X057714Y069289
X057714Y073186
X059663Y071237
X061612Y069289
X061612Y073186
X06356Y071237
X065509Y069289
X065509Y073186
X067458Y071237
X069406Y069289
X069406Y073186
X071355Y071237
X073304Y069289
X075253Y071237
X071355Y075135
X067458Y075135
X06356Y075135
X059663Y075135
X055765Y075135
X051868Y075135
X047971Y075135
X044073Y075135
X040176Y075135
X036278Y075135
X032381Y075135
X028483Y075135
X024586Y075135
X020688Y075135
X016791Y075135
T2C.01181F095S3
X038579Y013937
X054807Y019366
X069843Y023354
X070965Y023354
X072594Y024579
X072598Y026535
X061575Y033555
X059213Y02978
X058252Y033555
X057244Y033555
X054732Y034012
X054732Y026929
X051807Y026929
X051732Y033555
X045539Y026929
X038579Y026929
X033055Y026929
X025823Y03361
X022209Y03361
X019693Y026929
X017697Y03361
X022209Y039378
X025827Y039378
X033228Y039378
X035598Y039378
X037228Y039378
X045539Y040815
X047071Y040815
X051559Y040815
X052059Y036083
X054913Y040815
X055563Y036772
X058252Y040815
X059752Y039854
X061752Y036181
X065339Y040815
X065839Y035992
X068839Y035984
X072598Y039717
X072598Y036386
X074882Y040815
X07128Y04963
X068118Y04963
X052913Y048783
X047071Y043925
X043071Y048783
X043071Y043925
X038016Y043925
X034016Y048783
X034016Y043925
X024961Y048783
X015906Y048783
X014287Y048783
X014287Y056043
X015906Y056043
X024961Y056043
X034016Y056043
X043071Y056043
X05928Y056043
X061181Y056043
X068118Y053622
X071811Y053622
X067181Y070551
X061181Y070551
X035732Y070551
T3C.01575F095S3
X010945Y011969
X01126Y012677
X01126Y01126
X011969Y010945
X011969Y012992
X012677Y012677
X012677Y01126
X012992Y011969
X073937Y011969
X074252Y012677
X074252Y01126
X074961Y010945
X074961Y012992
X075669Y012677
X075669Y01126
X075984Y011969
X075984Y074961
X075669Y075669
X075669Y074252
X074961Y073937
X074252Y074252
X074252Y075669
X073937Y074961
X012992Y074961
X012677Y075669
X012677Y074252
X011969Y073937
X01126Y074252
X01126Y075669
X010945Y074961
X011969Y075984
X074961Y075984
T4C.01969F095S3
X070524Y059213
X071024Y059213
X071524Y059213
X071524Y061181
X071024Y061181
X070524Y061181
T5C.0315F197S55
X065906Y04422
X067087Y04422
X068268Y04422
X069449Y04422
X07063Y04422
X07063Y04822
X069449Y04822
X068268Y04822
X067087Y04822
X065906Y04822
T6C.03543F197S55
X074016Y030535
X074016Y031535
X074016Y032535
T7C.03937F197S55
X025354Y013937
X025354Y016937
X026354Y016937
X026354Y013937
X027354Y016937
X027354Y013937
X028354Y016937
X028354Y013937
X030472Y013937
X030472Y016937
X031472Y013937
X031472Y016937
X032472Y013937
X032472Y016937
X033472Y013937
X033472Y016937
X065118Y016969
X065118Y017969
X065118Y015969
X06748Y016969
X06748Y017969
X06748Y015969
X069843Y017969
X069843Y015969
X069843Y016969
X072205Y016969
X072205Y017969
X072205Y015969
X074567Y016969
X074567Y017969
X074567Y015969
X074409Y02337
X074409Y02537
X074409Y02437
X068575Y027717
X067575Y027717
X066575Y027717
X065575Y027717
X064575Y027717
X063575Y027717
X062575Y027717
X061575Y027717
X057244Y028291
X054732Y027717
X053732Y027717
X052732Y027717
X051732Y027717
X022205Y028291
X019693Y027717
X018693Y027717
X017693Y027717
X016693Y027717
X016693Y030717
X017693Y030717
X018693Y030717
X019693Y030717
X022205Y029291
X022205Y030291
X044618Y030059
X045539Y030059
X046461Y030059
X051732Y030717
X052732Y030717
X053732Y030717
X054732Y030717
X057244Y029291
X057244Y030291
X061575Y030717
X062575Y030717
X063575Y030717
X064575Y030717
X065575Y030717
X066575Y030717
X067575Y030717
X068575Y030717
X074409Y036559
X074409Y037559
X039228Y035197
X039228Y038197
X038228Y035197
X038228Y038197
X037228Y035197
X037228Y038197
X036228Y035197
X036228Y038197
X035228Y035197
X035228Y038197
X034228Y035197
X034228Y038197
X033228Y035197
X033228Y038197
X015906Y045039
X016906Y045039
X017906Y045039
X018906Y045039
X019906Y045039
X020906Y045039
X021906Y045039
X022906Y045039
X024961Y045039
X025961Y045039
X026961Y045039
X027961Y045039
X028961Y045039
X029961Y045039
X030961Y045039
X031961Y045039
X034016Y045039
X035016Y045039
X036016Y045039
X037016Y045039
X038016Y045039
X039016Y045039
X040016Y045039
X041016Y045039
X043071Y045039
X044071Y045039
X045071Y045039
X046071Y045039
X047071Y045039
X048071Y045039
X049071Y045039
X050071Y045039
X052913Y045039
X053913Y045039
X054913Y045039
X055913Y045039
X056913Y045039
X057913Y045039
X058913Y045039
X059913Y045039
X074409Y038559
X059913Y048039
X058913Y048039
X057913Y048039
X056913Y048039
X055913Y048039
X054913Y048039
X053913Y048039
X052913Y048039
X050071Y048039
X049071Y048039
X048071Y048039
X047071Y048039
X046071Y048039
X045071Y048039
X044071Y048039
X043071Y048039
X041016Y048039
X040016Y048039
X039016Y048039
X038016Y048039
X037016Y048039
X036016Y048039
X035016Y048039
X034016Y048039
X031961Y048039
X030961Y048039
X029961Y048039
X028961Y048039
X027961Y048039
X026961Y048039
X025961Y048039
X024961Y048039
X022906Y048039
X021906Y048039
X020906Y048039
X019906Y048039
X018906Y048039
X017906Y048039
X016906Y048039
X015906Y048039
X015906Y051732
X016906Y051732
X017906Y051732
X018906Y051732
X019906Y051732
X020906Y051732
X021906Y051732
X022906Y051732
X024961Y051732
X025961Y051732
X026961Y051732
X027961Y051732
X028961Y051732
X029961Y051732
X030961Y051732
X031961Y051732
X034016Y051732
X035016Y051732
X036016Y051732
X037016Y051732
X038016Y051732
X039016Y051732
X040016Y051732
X041016Y051732
X043071Y051732
X044071Y051732
X045071Y051732
X046071Y051732
X047071Y051732
X048071Y051732
X049071Y051732
X050071Y051732
X065118Y051732
X066118Y051732
X067118Y051732
X068118Y051732
X069118Y051732
X070118Y051732
X071118Y051732
X071118Y054732
X070118Y054732
X069118Y054732
X068118Y054732
X067118Y054732
X066118Y054732
X065118Y054732
X050071Y054732
X049071Y054732
X048071Y054732
X047071Y054732
X046071Y054732
X045071Y054732
X044071Y054732
X043071Y054732
X041016Y054732
X040016Y054732
X039016Y054732
X038016Y054732
X037016Y054732
X036016Y054732
X035016Y054732
X034016Y054732
X031961Y054732
X030961Y054732
X029961Y054732
X028961Y054732
X027961Y054732
X026961Y054732
X025961Y054732
X024961Y054732
X022906Y054732
X021906Y054732
X020906Y054732
X019906Y054732
X018906Y054732
X017906Y054732
X016906Y054732
X015906Y054732
X015874Y062118
X016874Y062118
X017874Y062118
X018874Y062118
X019874Y062118
X020992Y062118
X021992Y062118
X022992Y062118
X023992Y062118
X024992Y062118
X027685Y062118
X028685Y062118
X029685Y062118
X030685Y062118
X031685Y062118
X032803Y062118
X033803Y062118
X034803Y062118
X035803Y062118
X036803Y062118
X072524Y065118
X069524Y065118
X036803Y068118
X035803Y068118
X034803Y068118
X033803Y068118
X032803Y068118
X031685Y068118
X030685Y068118
X029685Y068118
X028685Y068118
X027685Y068118
X024992Y068118
X023992Y068118
X022992Y068118
X021992Y068118
X020992Y068118
X019874Y068118
X018874Y068118
X017874Y068118
X016874Y068118
X015874Y068118
T8C.04F139S55
X044539Y032835
X044539Y034409
X045539Y032835
X045539Y034409
X045539Y035984
X045539Y037559
X045539Y039134
X044539Y035984
X044539Y039134
X044539Y037559
T9C.05118F107S55
X016874Y014406
X016874Y017406
X018874Y017406
X018874Y014406
T10C.1378F035S794
X011969Y011969
X074961Y011969
X074961Y074961
X011969Y074961
M30
